<svg id="Layer_1" data-name="Layer 1" xmlns="http://www.w3.org/2000/svg" xmlns:xlink="http://www.w3.org/1999/xlink" viewBox="0 0 512 512"><defs><linearGradient id="New_Gradient_Swatch_1" x1="256" x2="256" y2="512" gradientUnits="userSpaceOnUse"><stop offset="0" stop-color="#ededee"/><stop offset="0.76" stop-color="#cfd0d2"/><stop offset="1" stop-color="#a6a8ab"/></linearGradient><linearGradient id="New_Gradient_Swatch_2" x1="256" y1="374.65" x2="256" y2="137.35" gradientUnits="userSpaceOnUse"><stop offset="0" stop-color="#231f20"/><stop offset="1" stop-color="#6d6e70"/></linearGradient></defs><title>back</title><path d="M256,512c141,0,256-115,256-256S397,0,256,0,0,115,0,256,115,512,256,512Z" fill-rule="evenodd" fill="url(#New_Gradient_Swatch_1)"/><path d="M193.24,146.64l-70.07,71c-28.54,28.89-29.76,46.45-.88,75.69l71.4,72.28C212.19,384.3,228,371.64,228,349.45V319.66H369.07A19.1,19.1,0,0,0,388,300.49v-89a19.1,19.1,0,0,0-18.93-19.17H228V159.66C228,134.38,208.32,131.39,193.24,146.64Z" fill="#fff" fill-rule="evenodd"/><path d="M204.64,146.64l-70.08,71c-28.53,28.89-29.75,46.45-.88,75.69l71.4,72.28c18.5,18.74,34.31,6.08,34.31-16.11V319.66H380.47a19.1,19.1,0,0,0,18.93-19.17v-89a19.1,19.1,0,0,0-18.93-19.17H239.4V159.66C239.4,134.38,219.71,131.39,204.64,146.64Z" fill-rule="evenodd" fill="url(#New_Gradient_Swatch_2)"/></svg>