<svg id="Layer_1" data-name="Layer 1" xmlns="http://www.w3.org/2000/svg" xmlns:xlink="http://www.w3.org/1999/xlink" viewBox="0 0 512 512"><defs><linearGradient id="linear-gradient" x1="256" y1="512" x2="256" gradientUnits="userSpaceOnUse"><stop offset="0" stop-color="#231f20"/><stop offset="1" stop-color="#58595b"/></linearGradient></defs><title>refresh</title><path d="M435.84,392.24,293.39,508.94c-9,6.31-16.41,2.54-16.41-8.47V460.22c-171.71-1.8-227.34-128.49-241-187.8-3.7-16.09,5.17-22.1,9.83-21.25,5.94,1.13,9.1,12.88,14.45,21.2,32,49.91,168.9,53.05,216.71,37.39v-48.6c0-11,7.41-14.78,16.41-8.52L435.84,369.34C444.87,375.66,444.87,386,435.84,392.24ZM76.15,142.67,218.64,259.39c9,6.24,16.39,2.47,16.39-8.54V202.24c47.81-15.66,184.66-12.49,216.69,37.4,5.36,8.33,8.54,20.07,14.46,21.2,4.66.85,13.55-5.15,9.81-21.24-13.65-59.34-69.25-186-241-187.82V11.54c0-11-7.41-14.8-16.39-8.5L76.15,119.76C67.15,126.05,67.15,136.35,76.15,142.67Z" fill="url(#linear-gradient)"/></svg>