<svg id="Layer_1" data-name="Layer 1" xmlns="http://www.w3.org/2000/svg" xmlns:xlink="http://www.w3.org/1999/xlink" viewBox="0 0 512 512"><defs><linearGradient id="linear-gradient" x1="256" y1="523.54" x2="256" y2="-11.54" gradientUnits="userSpaceOnUse"><stop offset="0" stop-color="#231f20"/><stop offset="1" stop-color="#58595b"/></linearGradient></defs><title>repeat</title><path d="M447.12,103.07c-85.75-85.73-224-86.56-308.72-1.82-41.07,41.07-61.35,94.63-62,148.68H10.8c-9.65,0-13.56,5.9-8.71,13.15L107,419.42c4.85,7.25,12.77,7.25,17.64,0L229.6,263.08c4.85-7.25.94-13.15-8.67-13.15H157.53a133.84,133.84,0,0,1,39-90.6c53-53,139.48-52.49,193.14,1.16s54.18,140.12,1.16,193.12c-26.2,26.24-60.66,39.05-95.25,39.12H277a12.49,12.49,0,0,0-12.47,12.45v56.13A12.49,12.49,0,0,0,277,473.77h19c.17,0,.32-.11.51-.11,55.32.19,110.4-19.91,152.44-61.93C533.71,327,532.91,188.81,447.12,103.07Z" fill="url(#linear-gradient)"/></svg>