<svg id="Layer_1" data-name="Layer 1" xmlns="http://www.w3.org/2000/svg" viewBox="0 0 512 512"><defs><style>.cls-1{fill:#9acc79;}.cls-2{opacity:0.3;}.cls-3{fill:#fff;}.cls-4{opacity:0.2;}.cls-5{fill:#ffb85a;}.cls-6{fill:#e4e6ea;}.cls-7{fill:#2b374f;}</style></defs><title>owl-filled</title><path class="cls-1" d="M451.94,208.78c0,80.3-108,198.89-163.62,254.65C269,482.84,256,494.66,256,494.66s-13-11.82-32.31-31.22C168.05,407.67,60.06,289.09,60.06,208.78c0-91.29,62.44-168,147-189.77.06,0,.06-.06.13,0a196.34,196.34,0,0,1,97.65,0c.06-.06.06,0,.13,0C389.49,40.79,451.94,117.5,451.94,208.78Z"/><g class="cls-2"><path class="cls-3" d="M114.67,205.25C114.67,127.78,151.35,59.36,207,19c-84.54,21.78-147,98.48-147,189.77,0,80.3,108,198.89,163.62,254.65C170.75,377.74,114.67,270.71,114.67,205.25Z"/></g><g class="cls-4"><path d="M451.94,208.78c0-91.29-62.44-168-147-189.77,55.7,40.34,92.38,108.76,92.38,186.24,0,65.46-56.08,172.49-109,258.19C343.95,407.67,451.94,289.09,451.94,208.78Z"/></g><polygon class="cls-5" points="256 282.66 204.61 179.88 307.39 179.88 256 282.66"/><circle class="cls-6" cx="185.33" cy="173.45" r="70.67"/><circle class="cls-6" cx="326.67" cy="173.45" r="70.67"/><path class="cls-7" d="M448.72,359.75h-52.4c37.54-50.49,68.46-105.78,68.46-151a208.32,208.32,0,0,0-70.29-156.1,188.67,188.67,0,0,1,22.11-1.3,12.85,12.85,0,1,0,0-25.7,209.49,209.49,0,0,0-50.09,6,208.34,208.34,0,0,0-221,0,209.49,209.49,0,0,0-50.09-6,12.85,12.85,0,0,0,0,25.7,188.67,188.67,0,0,1,22.11,1.3,208.32,208.32,0,0,0-70.29,156.1c0,45.19,30.91,100.48,68.46,151H63.28a12.85,12.85,0,1,0,0,25.7h72.35C187.22,449.27,243,500.25,247.37,504.17L256,512l8.63-7.83c4.32-3.92,60.15-54.9,111.74-118.73h72.35a12.85,12.85,0,1,0,0-25.7ZM256,25.7A182,182,0,0,1,333.59,43C298.77,58.51,271.16,83.47,256,113.64,240.84,83.47,213.23,58.51,178.41,43A182,182,0,0,1,256,25.7ZM243.15,173.45a57.82,57.82,0,1,1-57.82-57.82A57.88,57.88,0,0,1,243.15,173.45ZM256,217.88a84.06,84.06,0,0,0,11,14l-11,22.08-11-22.08A84.06,84.06,0,0,0,256,217.88Zm12.85-44.43a57.82,57.82,0,1,1,57.82,57.82A57.88,57.88,0,0,1,268.85,173.45ZM72.91,208.78A183,183,0,0,1,150,59.58c23.25,7.26,43.61,19,59.31,33.88a83.52,83.52,0,1,0,14.7,154l20.49,41a12.85,12.85,0,0,0,23,0l20.49-41a83.5,83.5,0,1,0,14.7-154C318.39,78.59,338.75,66.84,362,59.58a183,183,0,0,1,77.09,149.2c0,43.47-35,100.21-75,151H313.82v-6.42a12.85,12.85,0,1,0-25.7,0v6.42H223.88v-6.42a12.85,12.85,0,1,0-25.7,0v6.42H147.93C107.87,309,72.91,252.28,72.91,208.78ZM256,477.07a1243.52,1243.52,0,0,1-87-91.62h29.16v6.42a12.85,12.85,0,0,0,25.7,0v-6.42h64.24v6.42a12.85,12.85,0,0,0,25.7,0v-6.42H343A1244.79,1244.79,0,0,1,256,477.07Z"/><circle class="cls-7" cx="185.33" cy="173.45" r="19.27"/><circle class="cls-7" cx="326.67" cy="173.45" r="19.27"/></svg>